<svg id="Layer_1" data-name="Layer 1" xmlns="http://www.w3.org/2000/svg" viewBox="0 0 24 30"><path d="M15,0H3A3,3,0,0,0,0,3L0,27a3,3,0,0,0,3,3H21a3,3,0,0,0,3-3V9ZM6.26,23.77A1.31,1.31,0,0,0,5.54,25c0,.56,0,1.12,0,1.68v.12l-.17-.09a3,3,0,0,1-.79-.57,1.21,1.21,0,0,1-.34-.89,4.84,4.84,0,0,1,2-3.76l.1-.07v2.25A.12.12,0,0,1,6.26,23.77Zm7.83-.28v.13H7.94v-.11c0-.91,0-1.82,0-2.73,0-.08,0-.11.11-.13a.45.45,0,0,1,.43.08,4,4,0,0,0,2.26.73,5.09,5.09,0,0,0,1.82-.22,4.37,4.37,0,0,0,1.07-.56.27.27,0,0,1,.23-.05c.23,0,.23,0,.23.27Zm.49-6.41A4.32,4.32,0,0,1,12.73,20a2.91,2.91,0,0,1-3.55-.09,4.36,4.36,0,0,1-1.79-3.44v-.1s0,0,0,0h7.26C14.63,16.61,14.63,16.85,14.58,17.08ZM15,15.69H7.12a.56.56,0,0,1,0-1.11h.16A3.83,3.83,0,0,1,9.31,11.2c0,.25.08.48.12.71s.13.72.2,1.08a.28.28,0,0,0,.4.21.29.29,0,0,0,.16-.33c-.11-.64-.22-1.27-.34-1.91a.22.22,0,0,1,.05-.19.78.78,0,0,1,.58-.27h1.07a.74.74,0,0,1,.59.29.2.2,0,0,1,0,.15c-.11.64-.22,1.28-.34,1.92a.29.29,0,1,0,.57.11c.09-.54.19-1.08.28-1.61,0,0,0-.09,0-.15a3.81,3.81,0,0,1,2.08,3.36l.25,0a.56.56,0,0,1-.09,1.1Zm2.49,10.43a3.27,3.27,0,0,1-.74.54l-.21.11c0-.05,0-.08,0-.12V25a1.34,1.34,0,0,0-.74-1.26.13.13,0,0,1-.06-.09V21.45a.11.11,0,0,1,0-.05,1,1,0,0,1,.15.11,4.79,4.79,0,0,1,1.94,3.71A1.22,1.22,0,0,1,17.45,26.12ZM13.9,9.91l-.4-7.66,8.25,8.25Z" fill="#2196f3"/></svg>