<svg id="Layer_1" data-name="Layer 1" xmlns="http://www.w3.org/2000/svg" xmlns:xlink="http://www.w3.org/1999/xlink" viewBox="0 0 97.65 118.03"><defs><clipPath id="clip-path"><path d="M54.94,51.2C32.77,51.57,8.3,69.44.16,76.2l.19,35.21c8.17-10,32.86-33.55,57.48-36.85a17.81,17.81,0,0,1,2.63-.2l-3-21.47c-.1-.53-.18-1.06-.23-1.59a13.79,13.79,0,0,0-1.93-.11h-.39" fill="none"/></clipPath><linearGradient id="linear-gradient" x1="-1441" y1="-36.45" x2="-1436.64" y2="-36.45" gradientTransform="translate(23023.6 -6751.03) rotate(-18) scale(16.67)" gradientUnits="userSpaceOnUse"><stop offset="0" stop-color="#006fb9"/><stop offset="0.11" stop-color="#0080c7"/><stop offset="0.32" stop-color="#00abec"/><stop offset="0.33" stop-color="#00adee"/><stop offset="0.43" stop-color="#00a4e3"/><stop offset="0.6" stop-color="#008bc7"/><stop offset="0.82" stop-color="#006399"/><stop offset="1" stop-color="#003e70"/></linearGradient><clipPath id="clip-path-2"><path d="M62.15,56.31c-2.83.41-4.1-.75-4.66-3.42l3,21.47h.07c.34,3.32.86,8.44,5.92,7.82C73.25,81.35,83.9,76.32,97.62,64V31.73C86.08,47.36,68.49,55.4,62.15,56.31" fill="none"/></clipPath><linearGradient id="linear-gradient-2" x1="-1379.66" y1="-37.98" x2="-1375.3" y2="-37.98" gradientTransform="translate(14170.18 -2532.14) rotate(-11.99) scale(10.4)" gradientUnits="userSpaceOnUse"><stop offset="0" stop-color="#006fb9"/><stop offset="0.01" stop-color="#0077c0"/><stop offset="0.06" stop-color="#008fd4"/><stop offset="0.1" stop-color="#00a0e3"/><stop offset="0.15" stop-color="#00aaeb"/><stop offset="0.22" stop-color="#00adee"/><stop offset="0.33" stop-color="#00a4e3"/><stop offset="0.53" stop-color="#008bc7"/><stop offset="0.79" stop-color="#006399"/><stop offset="1" stop-color="#003e70"/></linearGradient><clipPath id="clip-path-3"><path d="M60.33,74.36a16.11,16.11,0,0,0-2.5.2C33.21,77.86,8.52,101.38.35,111.41V118H25.76c6.72-7.67,26.76-20.55,38-20.29L60.47,74.36h-.13" fill="none"/></clipPath><linearGradient id="linear-gradient-3" x1="-1432.59" y1="-44.29" x2="-1428.22" y2="-44.29" gradientTransform="translate(22288.23 785.36) scale(15.56)" gradientUnits="userSpaceOnUse"><stop offset="0" stop-color="#6a100e"/><stop offset="0.01" stop-color="#6e110f"/><stop offset="0.09" stop-color="#951b15"/><stop offset="0.18" stop-color="#b5231b"/><stop offset="0.26" stop-color="#ce2a1f"/><stop offset="0.36" stop-color="#df2e22"/><stop offset="0.45" stop-color="#ea3123"/><stop offset="0.57" stop-color="#ed3224"/><stop offset="0.63" stop-color="#e22f22"/><stop offset="0.74" stop-color="#c5281d"/><stop offset="0.88" stop-color="#961b15"/><stop offset="1" stop-color="#6a100e"/></linearGradient><clipPath id="clip-path-4"><path d="M66.45,82.18c-5.06.62-5.58-4.5-5.92-7.82h-.07l3.19,23.37c.46,2.63,1.31,5.68,4,7.07,7.35,3.83,30-9.88,30-9.88V64C83.93,76.32,73.28,81.35,66.51,82.18" fill="none"/></clipPath><linearGradient id="linear-gradient-4" x1="-1360.74" y1="-33.36" x2="-1356.38" y2="-33.36" gradientTransform="translate(12608.54 393.92) scale(9.22)" gradientUnits="userSpaceOnUse"><stop offset="0" stop-color="#6a100e"/><stop offset="0" stop-color="#6e110f"/><stop offset="0.05" stop-color="#951b15"/><stop offset="0.1" stop-color="#b5231b"/><stop offset="0.15" stop-color="#ce2a1f"/><stop offset="0.2" stop-color="#df2e22"/><stop offset="0.26" stop-color="#ea3123"/><stop offset="0.33" stop-color="#ed3224"/><stop offset="0.42" stop-color="#e22f22"/><stop offset="0.6" stop-color="#c5281d"/><stop offset="0.82" stop-color="#961b15"/><stop offset="1" stop-color="#6a100e"/></linearGradient><clipPath id="clip-path-5"><path d="M54.25,30.86a1.23,1.23,0,0,0,.51.42A5.12,5.12,0,0,0,57,31.7L56.49,28c-.12.88-2.75,2-2.24,2.86" fill="none"/></clipPath><linearGradient id="linear-gradient-5" x1="-1762.3" y1="1755.34" x2="-1757.94" y2="1755.34" gradientTransform="translate(-1735.82 -1132.2) rotate(-102.09) scale(0.86)" gradientUnits="userSpaceOnUse"><stop offset="0" stop-color="#d4ab08"/><stop offset="0.53" stop-color="#e8d020"/><stop offset="1" stop-color="#f8ec33"/></linearGradient><clipPath id="clip-path-6"><path d="M0,48.88.16,76.2c8.14-6.76,32.61-24.63,54.78-25a13.86,13.86,0,0,1,2.32.1l-3-20.44c-.92-1.61,8.66-4-5.88-4.31l-1.3,0C18,26.53,0,48.88,0,48.88" fill="none"/></clipPath><linearGradient id="linear-gradient-6" x1="-1435.14" y1="-36.19" x2="-1430.78" y2="-36.19" gradientTransform="translate(22538.15 619.93) scale(15.71)" gradientUnits="userSpaceOnUse"><stop offset="0" stop-color="#ffdc00"/><stop offset="0.18" stop-color="#f8ec33"/><stop offset="0.3" stop-color="#edd926"/><stop offset="0.51" stop-color="#dfc016"/><stop offset="0.69" stop-color="#d7b00c"/><stop offset="0.84" stop-color="#d4ab08"/><stop offset="0.92" stop-color="#d2a908"/><stop offset="0.96" stop-color="#caa307"/><stop offset="0.99" stop-color="#be9906"/><stop offset="1" stop-color="#b89505"/></linearGradient><clipPath id="clip-path-7"><path d="M54.76,31.28a1.23,1.23,0,0,1-.51-.42l3,20.44c.31,2.38.56,5.62,4.89,5,6.35-.87,24-9,35.44-24.56V0C80.35,29.16,58.5,33.24,54.76,31.28" fill="none"/></clipPath><linearGradient id="linear-gradient-7" x1="-1394.02" y1="-42.54" x2="-1389.66" y2="-42.54" gradientTransform="translate(16100.22 518.14) scale(11.51)" gradientUnits="userSpaceOnUse"><stop offset="0" stop-color="#ffdc00"/><stop offset="0.18" stop-color="#f8ec33"/><stop offset="0.34" stop-color="#edd926"/><stop offset="0.59" stop-color="#dfc016"/><stop offset="0.82" stop-color="#d7b00c"/><stop offset="1" stop-color="#d4ab08"/></linearGradient></defs><g id="Colores"><g clip-path="url(#clip-path)"><polygon points="-17.54 56.94 54.7 33.47 78.16 105.65 5.92 129.14 -17.54 56.94" fill="url(#linear-gradient)"/></g><g clip-path="url(#clip-path-2)"><polygon points="47.12 33.95 95.85 23.59 107.98 80.59 59.22 90.95 47.12 33.95" fill="url(#linear-gradient-2)"/></g><g clip-path="url(#clip-path-3)"><rect x="-3.5" y="68.25" width="71.1" height="55.89" transform="translate(-19.3 8.77) rotate(-12)" fill="url(#linear-gradient-3)"/></g><g clip-path="url(#clip-path-4)"><rect x="56.22" y="60.62" width="45.6" height="51.37" transform="translate(-16.23 18.33) rotate(-12.01)" fill="url(#linear-gradient-4)"/></g><g clip-path="url(#clip-path-5)"><polygon points="53.89 32.36 52.99 28.16 56.88 27.33 57.76 31.53 53.89 32.36" fill="url(#linear-gradient-5)"/></g><g clip-path="url(#clip-path-6)"><rect x="-6.11" y="18.02" width="75.16" height="66.66" transform="translate(-14.34 12.25) rotate(-18.01)" fill="url(#linear-gradient-6)"/></g><g clip-path="url(#clip-path-7)"><rect x="48.8" y="-3.87" width="54.23" height="64.68" transform="translate(-4.26 16.41) rotate(-12)" fill="url(#linear-gradient-7)"/></g><path d="M5.89,80.63c.39,1.33.58,2,1,3.33l2.58-1.58c-.8,1.53-1.19,2.29-2,3.8.36,1.38.54,2.07.92,3.46l-2.18-1c-.78,1.46-1.15,2.19-1.88,3.61.21-1.74.32-2.6.53-4.34-.8-.48-1.17-.74-1.91-1.24.87-.63,1.33-1,2.28-1.62.25-1.76.38-2.64.63-4.39" fill="#fff"/><path d="M15.2,74.1l1.2,3.34c1.21-.66,1.84-1,3.09-1.64-.94,1.55-1.4,2.32-2.32,3.87.44,1.39.67,2.08,1.12,3.47l-2.64-1c-.93,1.51-1.39,2.26-2.28,3.76.25-1.77.38-2.66.62-4.44-1-.44-1.46-.67-2.4-1.12,1.11-.71,1.69-1.08,2.86-1.81l.75-4.47" fill="#fff"/><path d="M26.08,67.63,27.45,71c1.36-.6,2-.88,3.44-1.44-1,1.47-1.55,2.21-2.58,3.71l1.27,3.51c-1.2-.45-1.8-.65-3-1.08l-2.5,3.7c.28-1.77.42-2.66.71-4.43L22,73.8c1.29-.7,2-1.06,3.28-1.73.34-1.78.5-2.67.84-4.44" fill="#fff"/><path d="M38,62.52c.59,1.38.89,2.09,1.49,3.48,1.45-.43,2.17-.63,3.63-1-1.07,1.3-1.61,2-2.69,3.3.55,1.43.83,2.14,1.38,3.58-1.27-.57-1.91-.84-3.17-1.37-1.11,1.34-1.67,2-2.77,3.4.3-1.72.44-2.59.74-4.31l-3-1.41c1.41-.59,2.13-.88,3.55-1.41.35-1.71.52-2.56.87-4.26" fill="#fff"/><path d="M50.42,59.54c.66,1.43,1,2.19,1.66,3.57a35,35,0,0,1,3.69-.28c-1.14,1-1.6,1.53-2.67,2.63l1.5,3.6c-1.32-.74-2-1.09-3.3-1.8-1.12,1.1-1.68,1.67-2.81,2.85.28-1.62.42-2.43.7-4-1.28-.73-1.91-1.1-3.17-1.8,1.45-.37,2.18-.53,3.65-.81.33-1.58.48-2.37.8-3.93" fill="#fff"/><path d="M64.68,63.63c.49,1.57.84,2.34,1.32,3.9a30.52,30.52,0,0,0,3.51-1c-1.2,1.55-1.77,2.28-2.79,3.63.41,1.6.62,2.4,1,4-1.12-.72-1.62-1-3-2A8.65,8.65,0,0,1,62,73.84c.32-1.33.5-2,.87-3.53-1-1.29-1.22-1.91-2.39-3.41a5.82,5.82,0,0,0,3.06.88c.45-1.59.69-2.43,1.16-4.16" fill="#fff"/><path d="M77.29,58.3c.42,1.53.64,2.3,1,3.83,1.52-.85,2.3-1.31,3.88-2.33-1.33,2.05-2,3-3.25,4.9l.87,4c-1.18-.38-1.77-.59-2.93-1-1.23,1.73-1.83,2.56-3,4.15.44-2,.67-3,1.14-5-1.1-.57-1.65-.88-2.72-1.52,1.36-.64,2.08-1,3.54-1.82.54-2.06.82-3.09,1.4-5.19" fill="#fff"/><path d="M90.28,48.92c.35,1.55.52,2.32.88,3.86,1.4-1.19,2.1-1.82,3.49-3.16C93.5,52,92.9,53.15,91.71,55.39c.32,1.62.48,2.44.81,4.07-1.13-.16-1.69-.25-2.79-.47-1.22,2.13-1.83,3.17-3,5.18.52-2.25.78-3.38,1.29-5.65-1-.36-1.55-.55-2.57-1,1.38-1.06,2.08-1.63,3.47-2.82.57-2.31.86-3.48,1.41-5.83" fill="#fff"/></g></svg>